<mxfile host="65bd71144e">
    <diagram id="f8rmJXFhlB6XnrhJ4GnR" name="Page-1">
        <mxGraphModel dx="2114" dy="2115" grid="1" gridSize="10" guides="1" tooltips="1" connect="1" arrows="1" fold="1" page="1" pageScale="1" pageWidth="850" pageHeight="1100" math="0" shadow="0">
            <root>
                <mxCell id="0"/>
                <mxCell id="1" parent="0"/>
                <mxCell id="96" value="" style="rounded=1;whiteSpace=wrap;html=1;fontSize=15;align=center;verticalAlign=middle;fillColor=#6a00ff;fontColor=#ffffff;strokeColor=#000000;" vertex="1" parent="1">
                    <mxGeometry x="670" y="115" width="130" height="55" as="geometry"/>
                </mxCell>
                <mxCell id="98" value="Can be expanded" style="text;html=1;strokeColor=none;fillColor=none;align=center;verticalAlign=middle;whiteSpace=wrap;rounded=0;fontSize=15;fontColor=#FFFFFF;" vertex="1" parent="1">
                    <mxGeometry x="670" y="140.5" width="130" height="21.5" as="geometry"/>
                </mxCell>
                <mxCell id="90" value="" style="rounded=1;whiteSpace=wrap;html=1;fontSize=15;align=center;verticalAlign=middle;fillColor=#a20025;fontColor=#ffffff;strokeColor=#000000;" vertex="1" parent="1">
                    <mxGeometry x="670" y="179.5" width="130" height="70" as="geometry"/>
                </mxCell>
                <mxCell id="2" value="Expr" style="rounded=1;whiteSpace=wrap;html=1;verticalAlign=top;arcSize=10;fillColor=#6a00ff;fontColor=#ffffff;strokeColor=#000000;" vertex="1" parent="1">
                    <mxGeometry x="330" y="58" width="70" height="130" as="geometry"/>
                </mxCell>
                <mxCell id="24" style="edgeStyle=orthogonalEdgeStyle;html=1;exitX=1;exitY=0.5;exitDx=0;exitDy=0;entryX=0;entryY=0.5;entryDx=0;entryDy=0;endArrow=open;endFill=0;endSize=15;strokeColor=#000000;" edge="1" parent="1" source="7" target="20">
                    <mxGeometry relative="1" as="geometry"/>
                </mxCell>
                <mxCell id="7" value="Expr" style="rounded=1;whiteSpace=wrap;html=1;fillColor=#6a00ff;fontColor=#ffffff;strokeColor=#000000;" vertex="1" parent="1">
                    <mxGeometry x="335" y="90" width="60" height="25" as="geometry"/>
                </mxCell>
                <mxCell id="44" style="edgeStyle=orthogonalEdgeStyle;html=1;exitX=1;exitY=0.5;exitDx=0;exitDy=0;entryX=0;entryY=0.5;entryDx=0;entryDy=0;endArrow=open;endFill=0;endSize=15;strokeColor=#000000;" edge="1" parent="1" source="16" target="2">
                    <mxGeometry relative="1" as="geometry"/>
                </mxCell>
                <mxCell id="16" value="Prog" style="rounded=1;whiteSpace=wrap;html=1;fillColor=#6a00ff;fontColor=#ffffff;strokeColor=#000000;" vertex="1" parent="1">
                    <mxGeometry x="220" y="103" width="70" height="40" as="geometry"/>
                </mxCell>
                <mxCell id="17" value="+" style="rounded=1;whiteSpace=wrap;html=1;fillColor=#a20025;fontColor=#ffffff;strokeColor=#000000;fontSize=22;" vertex="1" parent="1">
                    <mxGeometry x="335" y="123" width="60" height="25" as="geometry"/>
                </mxCell>
                <mxCell id="41" style="edgeStyle=orthogonalEdgeStyle;html=1;exitX=1;exitY=0.5;exitDx=0;exitDy=0;entryX=0;entryY=0.5;entryDx=0;entryDy=0;endArrow=open;endFill=0;endSize=15;strokeColor=#000000;" edge="1" parent="1" source="18" target="37">
                    <mxGeometry relative="1" as="geometry"/>
                </mxCell>
                <mxCell id="18" value="Expr" style="rounded=1;whiteSpace=wrap;html=1;fillColor=#6a00ff;fontColor=#ffffff;strokeColor=#000000;" vertex="1" parent="1">
                    <mxGeometry x="335" y="155.5" width="60" height="25" as="geometry"/>
                </mxCell>
                <mxCell id="20" value="Expr" style="rounded=1;whiteSpace=wrap;html=1;verticalAlign=top;arcSize=10;fillColor=#6a00ff;fontColor=#ffffff;strokeColor=#000000;" vertex="1" parent="1">
                    <mxGeometry x="455" y="18" width="70" height="130" as="geometry"/>
                </mxCell>
                <mxCell id="46" style="edgeStyle=orthogonalEdgeStyle;html=1;exitX=1;exitY=0.5;exitDx=0;exitDy=0;entryX=0;entryY=0.5;entryDx=0;entryDy=0;fontSize=22;endArrow=open;endFill=0;endSize=15;strokeColor=#000000;" edge="1" parent="1" source="21" target="28">
                    <mxGeometry relative="1" as="geometry"/>
                </mxCell>
                <mxCell id="21" value="Expr" style="rounded=1;whiteSpace=wrap;html=1;fillColor=#6a00ff;fontColor=#ffffff;strokeColor=#000000;" vertex="1" parent="1">
                    <mxGeometry x="460" y="50" width="60" height="25" as="geometry"/>
                </mxCell>
                <mxCell id="22" value="+" style="rounded=1;whiteSpace=wrap;html=1;fillColor=#a20025;fontColor=#ffffff;strokeColor=#000000;fontSize=22;" vertex="1" parent="1">
                    <mxGeometry x="460" y="83" width="60" height="25" as="geometry"/>
                </mxCell>
                <mxCell id="47" style="edgeStyle=orthogonalEdgeStyle;html=1;exitX=1;exitY=0.5;exitDx=0;exitDy=0;entryX=0;entryY=0.5;entryDx=0;entryDy=0;fontSize=22;endArrow=open;endFill=0;endSize=15;strokeColor=#000000;" edge="1" parent="1" source="23" target="25">
                    <mxGeometry relative="1" as="geometry"/>
                </mxCell>
                <mxCell id="23" value="Expr" style="rounded=1;whiteSpace=wrap;html=1;fillColor=#6a00ff;fontColor=#ffffff;strokeColor=#000000;" vertex="1" parent="1">
                    <mxGeometry x="460" y="115.5" width="60" height="25" as="geometry"/>
                </mxCell>
                <mxCell id="25" value="0" style="rounded=1;whiteSpace=wrap;html=1;verticalAlign=middle;arcSize=10;fillColor=#a20025;fontColor=#ffffff;strokeColor=#000000;fontSize=22;" vertex="1" parent="1">
                    <mxGeometry x="570" y="108" width="70" height="40" as="geometry"/>
                </mxCell>
                <mxCell id="28" value="Expr" style="rounded=1;whiteSpace=wrap;html=1;verticalAlign=top;arcSize=10;fillColor=#6a00ff;fontColor=#ffffff;strokeColor=#000000;" vertex="1" parent="1">
                    <mxGeometry x="570" y="-40" width="70" height="130" as="geometry"/>
                </mxCell>
                <mxCell id="35" style="edgeStyle=orthogonalEdgeStyle;html=1;exitX=1;exitY=0.5;exitDx=0;exitDy=0;entryX=0;entryY=0.5;entryDx=0;entryDy=0;endArrow=open;endFill=0;endSize=15;strokeColor=#000000;" edge="1" parent="1" source="29" target="33">
                    <mxGeometry relative="1" as="geometry"/>
                </mxCell>
                <mxCell id="29" value="Expr" style="rounded=1;whiteSpace=wrap;html=1;fillColor=#6a00ff;fontColor=#ffffff;strokeColor=#000000;" vertex="1" parent="1">
                    <mxGeometry x="575" y="-8" width="60" height="25" as="geometry"/>
                </mxCell>
                <mxCell id="30" value="-" style="rounded=1;whiteSpace=wrap;html=1;fillColor=#a20025;fontColor=#ffffff;strokeColor=#000000;fontSize=22;" vertex="1" parent="1">
                    <mxGeometry x="575" y="25" width="60" height="25" as="geometry"/>
                </mxCell>
                <mxCell id="36" style="edgeStyle=orthogonalEdgeStyle;html=1;exitX=1;exitY=0.5;exitDx=0;exitDy=0;entryX=0;entryY=0.5;entryDx=0;entryDy=0;endArrow=open;endFill=0;endSize=15;strokeColor=#000000;" edge="1" parent="1" source="31" target="34">
                    <mxGeometry relative="1" as="geometry"/>
                </mxCell>
                <mxCell id="31" value="Expr" style="rounded=1;whiteSpace=wrap;html=1;fillColor=#6a00ff;fontColor=#ffffff;strokeColor=#000000;" vertex="1" parent="1">
                    <mxGeometry x="575" y="57.5" width="60" height="25" as="geometry"/>
                </mxCell>
                <mxCell id="33" value="3" style="rounded=1;whiteSpace=wrap;html=1;verticalAlign=middle;arcSize=10;fillColor=#a20025;fontColor=#ffffff;strokeColor=#000000;fontSize=22;" vertex="1" parent="1">
                    <mxGeometry x="670" y="-15" width="70" height="40" as="geometry"/>
                </mxCell>
                <mxCell id="34" value="6" style="rounded=1;whiteSpace=wrap;html=1;verticalAlign=middle;arcSize=10;fillColor=#a20025;fontColor=#ffffff;strokeColor=#000000;fontSize=22;" vertex="1" parent="1">
                    <mxGeometry x="670" y="50" width="70" height="40" as="geometry"/>
                </mxCell>
                <mxCell id="37" value="Expr" style="rounded=1;whiteSpace=wrap;html=1;verticalAlign=top;arcSize=10;fillColor=#6a00ff;fontColor=#ffffff;strokeColor=#000000;" vertex="1" parent="1">
                    <mxGeometry x="455" y="155.5" width="70" height="65" as="geometry"/>
                </mxCell>
                <mxCell id="43" style="edgeStyle=orthogonalEdgeStyle;html=1;exitX=1;exitY=0.5;exitDx=0;exitDy=0;entryX=0;entryY=0.5;entryDx=0;entryDy=0;endArrow=open;endFill=0;endSize=15;strokeColor=#000000;" edge="1" parent="1" source="38" target="42">
                    <mxGeometry relative="1" as="geometry"/>
                </mxCell>
                <mxCell id="38" value="Identifier" style="rounded=1;whiteSpace=wrap;html=1;fillColor=#6a00ff;fontColor=#ffffff;strokeColor=#000000;" vertex="1" parent="1">
                    <mxGeometry x="460" y="187.5" width="60" height="25" as="geometry"/>
                </mxCell>
                <mxCell id="42" value="foo" style="rounded=1;whiteSpace=wrap;html=1;verticalAlign=middle;arcSize=10;fillColor=#a20025;fontColor=#ffffff;strokeColor=#000000;fontSize=22;" vertex="1" parent="1">
                    <mxGeometry x="570" y="180.5" width="70" height="40" as="geometry"/>
                </mxCell>
                <mxCell id="87" style="edgeStyle=orthogonalEdgeStyle;html=1;exitX=0.5;exitY=1;exitDx=0;exitDy=0;entryX=0.5;entryY=0;entryDx=0;entryDy=0;fontSize=40;endArrow=open;endFill=0;endSize=10;strokeColor=#000000;" edge="1" parent="1" source="45" target="86">
                    <mxGeometry relative="1" as="geometry"/>
                </mxCell>
                <mxCell id="45" value="foo + 0 + 6 - 3" style="text;html=1;strokeColor=none;fillColor=none;align=center;verticalAlign=middle;whiteSpace=wrap;rounded=0;fontSize=40;" vertex="1" parent="1">
                    <mxGeometry x="50" y="-230" width="750" height="40" as="geometry"/>
                </mxCell>
                <mxCell id="69" style="edgeStyle=orthogonalEdgeStyle;html=1;exitX=1;exitY=0.5;exitDx=0;exitDy=0;entryX=0;entryY=0.5;entryDx=0;entryDy=0;fontSize=40;endArrow=open;endFill=0;endSize=10;strokeColor=#000000;" edge="1" parent="1" source="48" target="50">
                    <mxGeometry relative="1" as="geometry"/>
                </mxCell>
                <mxCell id="48" value="Expr" style="text;html=1;strokeColor=none;fillColor=none;align=right;verticalAlign=middle;whiteSpace=wrap;rounded=0;fontSize=22;" vertex="1" parent="1">
                    <mxGeometry x="30" y="5" width="60" height="20" as="geometry"/>
                </mxCell>
                <mxCell id="70" style="edgeStyle=orthogonalEdgeStyle;html=1;exitX=1;exitY=0.5;exitDx=0;exitDy=0;entryX=0;entryY=0.5;entryDx=0;entryDy=0;fontSize=40;endArrow=open;endFill=0;endSize=10;strokeColor=#000000;" edge="1" parent="1" source="49" target="51">
                    <mxGeometry relative="1" as="geometry"/>
                </mxCell>
                <mxCell id="49" value="Expr" style="text;html=1;strokeColor=none;fillColor=none;align=right;verticalAlign=middle;whiteSpace=wrap;rounded=0;fontSize=22;" vertex="1" parent="1">
                    <mxGeometry x="30" y="30" width="60" height="20" as="geometry"/>
                </mxCell>
                <mxCell id="50" value="Expr '+' Expr" style="text;html=1;strokeColor=none;fillColor=none;align=left;verticalAlign=middle;whiteSpace=wrap;rounded=0;fontSize=22;" vertex="1" parent="1">
                    <mxGeometry x="110" y="5" width="140" height="20" as="geometry"/>
                </mxCell>
                <mxCell id="51" value="Expr '-' Expr" style="text;html=1;strokeColor=none;fillColor=none;align=left;verticalAlign=middle;whiteSpace=wrap;rounded=0;fontSize=22;" vertex="1" parent="1">
                    <mxGeometry x="110" y="30" width="140" height="20" as="geometry"/>
                </mxCell>
                <mxCell id="71" style="edgeStyle=orthogonalEdgeStyle;html=1;exitX=1;exitY=0.5;exitDx=0;exitDy=0;entryX=0;entryY=0.5;entryDx=0;entryDy=0;fontSize=40;endArrow=open;endFill=0;endSize=10;strokeColor=#000000;" edge="1" parent="1" source="52" target="53">
                    <mxGeometry relative="1" as="geometry"/>
                </mxCell>
                <mxCell id="52" value="Expr" style="text;html=1;strokeColor=none;fillColor=none;align=right;verticalAlign=middle;whiteSpace=wrap;rounded=0;fontSize=22;" vertex="1" parent="1">
                    <mxGeometry x="30" y="58" width="60" height="20" as="geometry"/>
                </mxCell>
                <mxCell id="53" value="0" style="text;html=1;strokeColor=none;fillColor=none;align=left;verticalAlign=middle;whiteSpace=wrap;rounded=0;fontSize=22;" vertex="1" parent="1">
                    <mxGeometry x="110" y="58" width="60" height="20" as="geometry"/>
                </mxCell>
                <mxCell id="54" value="3" style="text;html=1;strokeColor=none;fillColor=none;align=left;verticalAlign=middle;whiteSpace=wrap;rounded=0;fontSize=22;" vertex="1" parent="1">
                    <mxGeometry x="110" y="83" width="60" height="20" as="geometry"/>
                </mxCell>
                <mxCell id="55" value="6" style="text;html=1;strokeColor=none;fillColor=none;align=left;verticalAlign=middle;whiteSpace=wrap;rounded=0;fontSize=22;" vertex="1" parent="1">
                    <mxGeometry x="110" y="110.5" width="60" height="20" as="geometry"/>
                </mxCell>
                <mxCell id="72" style="edgeStyle=orthogonalEdgeStyle;html=1;exitX=1;exitY=0.5;exitDx=0;exitDy=0;entryX=0;entryY=0.5;entryDx=0;entryDy=0;fontSize=40;endArrow=open;endFill=0;endSize=10;strokeColor=#000000;" edge="1" parent="1" source="56" target="54">
                    <mxGeometry relative="1" as="geometry"/>
                </mxCell>
                <mxCell id="56" value="Expr" style="text;html=1;strokeColor=none;fillColor=none;align=right;verticalAlign=middle;whiteSpace=wrap;rounded=0;fontSize=22;" vertex="1" parent="1">
                    <mxGeometry x="30" y="83" width="60" height="20" as="geometry"/>
                </mxCell>
                <mxCell id="73" style="edgeStyle=orthogonalEdgeStyle;html=1;exitX=1;exitY=0.5;exitDx=0;exitDy=0;entryX=0;entryY=0.5;entryDx=0;entryDy=0;fontSize=40;endArrow=open;endFill=0;endSize=10;strokeColor=#000000;" edge="1" parent="1" source="57" target="55">
                    <mxGeometry relative="1" as="geometry"/>
                </mxCell>
                <mxCell id="57" value="Expr" style="text;html=1;strokeColor=none;fillColor=none;align=right;verticalAlign=middle;whiteSpace=wrap;rounded=0;fontSize=22;" vertex="1" parent="1">
                    <mxGeometry x="30" y="110.5" width="60" height="20" as="geometry"/>
                </mxCell>
                <mxCell id="74" style="edgeStyle=orthogonalEdgeStyle;html=1;exitX=1;exitY=0.5;exitDx=0;exitDy=0;entryX=0;entryY=0.5;entryDx=0;entryDy=0;fontSize=40;endArrow=open;endFill=0;endSize=10;strokeColor=#000000;" edge="1" parent="1" source="58" target="60">
                    <mxGeometry relative="1" as="geometry"/>
                </mxCell>
                <mxCell id="58" value="Expr" style="text;html=1;strokeColor=none;fillColor=none;align=right;verticalAlign=middle;whiteSpace=wrap;rounded=0;fontSize=22;" vertex="1" parent="1">
                    <mxGeometry x="30" y="135.5" width="60" height="20" as="geometry"/>
                </mxCell>
                <mxCell id="60" value="Identifier" style="text;html=1;strokeColor=none;fillColor=none;align=left;verticalAlign=middle;whiteSpace=wrap;rounded=0;fontSize=22;" vertex="1" parent="1">
                    <mxGeometry x="110" y="135.5" width="60" height="20" as="geometry"/>
                </mxCell>
                <mxCell id="75" style="edgeStyle=orthogonalEdgeStyle;html=1;exitX=1;exitY=0.5;exitDx=0;exitDy=0;entryX=0;entryY=0.5;entryDx=0;entryDy=0;fontSize=40;endArrow=open;endFill=0;endSize=10;strokeColor=#000000;" edge="1" parent="1" source="61" target="63">
                    <mxGeometry relative="1" as="geometry"/>
                </mxCell>
                <mxCell id="61" value="Identifier" style="text;html=1;strokeColor=none;fillColor=none;align=right;verticalAlign=middle;whiteSpace=wrap;rounded=0;fontSize=22;" vertex="1" parent="1">
                    <mxGeometry x="10" y="163" width="80" height="20" as="geometry"/>
                </mxCell>
                <mxCell id="63" value="'foo'" style="text;html=1;strokeColor=none;fillColor=none;align=left;verticalAlign=middle;whiteSpace=wrap;rounded=0;fontSize=22;" vertex="1" parent="1">
                    <mxGeometry x="110" y="163" width="60" height="20" as="geometry"/>
                </mxCell>
                <mxCell id="76" style="edgeStyle=orthogonalEdgeStyle;html=1;exitX=1;exitY=0.5;exitDx=0;exitDy=0;entryX=0;entryY=0.5;entryDx=0;entryDy=0;fontSize=40;endArrow=open;endFill=0;endSize=10;strokeColor=#000000;" edge="1" parent="1" source="64" target="65">
                    <mxGeometry relative="1" as="geometry"/>
                </mxCell>
                <mxCell id="64" value="Identifier" style="text;html=1;strokeColor=none;fillColor=none;align=right;verticalAlign=middle;whiteSpace=wrap;rounded=0;fontSize=22;" vertex="1" parent="1">
                    <mxGeometry x="10" y="193" width="80" height="20" as="geometry"/>
                </mxCell>
                <mxCell id="65" value="'bar'" style="text;html=1;strokeColor=none;fillColor=none;align=left;verticalAlign=middle;whiteSpace=wrap;rounded=0;fontSize=22;" vertex="1" parent="1">
                    <mxGeometry x="110" y="193" width="60" height="20" as="geometry"/>
                </mxCell>
                <mxCell id="68" style="edgeStyle=orthogonalEdgeStyle;html=1;exitX=1;exitY=0.5;exitDx=0;exitDy=0;entryX=0;entryY=0.5;entryDx=0;entryDy=0;fontSize=40;endArrow=open;endFill=0;endSize=10;strokeColor=#000000;" edge="1" parent="1" source="66" target="67">
                    <mxGeometry relative="1" as="geometry"/>
                </mxCell>
                <mxCell id="66" value="Prog" style="text;html=1;strokeColor=none;fillColor=none;align=right;verticalAlign=middle;whiteSpace=wrap;rounded=0;fontSize=22;" vertex="1" parent="1">
                    <mxGeometry x="30" y="-23" width="60" height="20" as="geometry"/>
                </mxCell>
                <mxCell id="67" value="Expr" style="text;html=1;strokeColor=none;fillColor=none;align=left;verticalAlign=middle;whiteSpace=wrap;rounded=0;fontSize=22;" vertex="1" parent="1">
                    <mxGeometry x="110" y="-23" width="140" height="20" as="geometry"/>
                </mxCell>
                <mxCell id="77" value="foo" style="rounded=1;whiteSpace=wrap;html=1;verticalAlign=middle;arcSize=10;fillColor=#a20025;fontColor=#ffffff;strokeColor=#000000;fontSize=22;" vertex="1" parent="1">
                    <mxGeometry x="120.5" y="-100" width="70" height="40" as="geometry"/>
                </mxCell>
                <mxCell id="79" value="+" style="rounded=1;whiteSpace=wrap;html=1;verticalAlign=middle;arcSize=10;fillColor=#a20025;fontColor=#ffffff;strokeColor=#000000;fontSize=22;" vertex="1" parent="1">
                    <mxGeometry x="205.5" y="-100" width="70" height="40" as="geometry"/>
                </mxCell>
                <mxCell id="80" value="0" style="rounded=1;whiteSpace=wrap;html=1;verticalAlign=middle;arcSize=10;fillColor=#a20025;fontColor=#ffffff;strokeColor=#000000;fontSize=22;" vertex="1" parent="1">
                    <mxGeometry x="295.5" y="-100" width="70" height="40" as="geometry"/>
                </mxCell>
                <mxCell id="81" value="+" style="rounded=1;whiteSpace=wrap;html=1;verticalAlign=middle;arcSize=10;fillColor=#a20025;fontColor=#ffffff;strokeColor=#000000;fontSize=22;" vertex="1" parent="1">
                    <mxGeometry x="385.5" y="-100" width="70" height="40" as="geometry"/>
                </mxCell>
                <mxCell id="82" value="6" style="rounded=1;whiteSpace=wrap;html=1;verticalAlign=middle;arcSize=10;fillColor=#a20025;fontColor=#ffffff;strokeColor=#000000;fontSize=22;" vertex="1" parent="1">
                    <mxGeometry x="475.5" y="-100" width="70" height="40" as="geometry"/>
                </mxCell>
                <mxCell id="83" value="-" style="rounded=1;whiteSpace=wrap;html=1;verticalAlign=middle;arcSize=10;fillColor=#a20025;fontColor=#ffffff;strokeColor=#000000;fontSize=22;" vertex="1" parent="1">
                    <mxGeometry x="565.5" y="-100" width="70" height="40" as="geometry"/>
                </mxCell>
                <mxCell id="84" value="3" style="rounded=1;whiteSpace=wrap;html=1;verticalAlign=middle;arcSize=10;fillColor=#a20025;fontColor=#ffffff;strokeColor=#000000;fontSize=22;" vertex="1" parent="1">
                    <mxGeometry x="655.5" y="-100" width="70" height="40" as="geometry"/>
                </mxCell>
                <mxCell id="85" value="" style="shape=curlyBracket;whiteSpace=wrap;html=1;rounded=1;flipH=1;fontSize=40;strokeColor=#000000;align=right;verticalAlign=middle;rotation=-90;" vertex="1" parent="1">
                    <mxGeometry x="413" y="-420" width="20" height="600" as="geometry"/>
                </mxCell>
                <mxCell id="86" value="Tokens" style="text;html=1;strokeColor=none;fillColor=none;align=center;verticalAlign=middle;whiteSpace=wrap;rounded=0;fontSize=22;" vertex="1" parent="1">
                    <mxGeometry x="355" y="-160" width="140" height="20" as="geometry"/>
                </mxCell>
                <mxCell id="88" value="Terminals" style="text;html=1;strokeColor=none;fillColor=none;align=center;verticalAlign=middle;whiteSpace=wrap;rounded=0;fontSize=20;fontColor=#FFFFFF;" vertex="1" parent="1">
                    <mxGeometry x="670" y="185" width="130" height="20" as="geometry"/>
                </mxCell>
                <mxCell id="89" value="Cannot be expanded further" style="text;html=1;strokeColor=none;fillColor=none;align=center;verticalAlign=middle;whiteSpace=wrap;rounded=0;fontSize=15;fontColor=#FFFFFF;" vertex="1" parent="1">
                    <mxGeometry x="670" y="203" width="130" height="46.5" as="geometry"/>
                </mxCell>
                <mxCell id="97" value="Non-Terminals" style="text;html=1;strokeColor=none;fillColor=none;align=center;verticalAlign=middle;whiteSpace=wrap;rounded=0;fontSize=19;fontColor=#FFFFFF;" vertex="1" parent="1">
                    <mxGeometry x="670" y="120.5" width="130" height="20" as="geometry"/>
                </mxCell>
                <mxCell id="99" value="" style="shape=curlyBracket;whiteSpace=wrap;html=1;rounded=1;fontSize=19;strokeColor=#000000;fillColor=none;align=center;verticalAlign=middle;" vertex="1" parent="1">
                    <mxGeometry x="-20" y="-17.5" width="20" height="230" as="geometry"/>
                </mxCell>
                <mxCell id="100" value="Productions" style="text;html=1;strokeColor=none;fillColor=none;align=center;verticalAlign=middle;whiteSpace=wrap;rounded=0;fontSize=19;rotation=-90;" vertex="1" parent="1">
                    <mxGeometry x="-90" y="83" width="110" height="20" as="geometry"/>
                </mxCell>
                <mxCell id="103" style="edgeStyle=orthogonalEdgeStyle;html=1;exitX=0.5;exitY=1;exitDx=0;exitDy=0;entryX=0.5;entryY=0;entryDx=0;entryDy=0;fontSize=19;endArrow=open;endFill=0;endSize=10;strokeColor=#000000;" edge="1" parent="1" source="102" target="66">
                    <mxGeometry relative="1" as="geometry"/>
                </mxCell>
                <mxCell id="102" value="Start Symbol" style="text;html=1;strokeColor=none;fillColor=none;align=center;verticalAlign=middle;whiteSpace=wrap;rounded=0;fontSize=19;" vertex="1" parent="1">
                    <mxGeometry x="15" y="-105" width="90" height="50" as="geometry"/>
                </mxCell>
            </root>
        </mxGraphModel>
    </diagram>
</mxfile>